<mxfile host="app.diagrams.net" modified="2023-03-08T10:09:10.537Z" agent="5.0 (Windows NT 10.0; Win64; x64) AppleWebKit/537.36 (KHTML, like Gecko) Chrome/110.0.0.0 Safari/537.36" etag="sq3FyooGbDnvV62r4cy_" version="21.0.2" type="github">
  <diagram id="C5RBs43oDa-KdzZeNtuy" name="Page-1">
    <mxGraphModel dx="1434" dy="796" grid="1" gridSize="10" guides="1" tooltips="1" connect="1" arrows="1" fold="1" page="1" pageScale="1" pageWidth="827" pageHeight="1169" math="0" shadow="0">
      <root>
        <mxCell id="WIyWlLk6GJQsqaUBKTNV-0" />
        <mxCell id="WIyWlLk6GJQsqaUBKTNV-1" parent="WIyWlLk6GJQsqaUBKTNV-0" />
        <mxCell id="Dd3rRLLR6t489pkpHAai-2" style="edgeStyle=orthogonalEdgeStyle;rounded=0;orthogonalLoop=1;jettySize=auto;html=1;entryX=0.5;entryY=0;entryDx=0;entryDy=0;" edge="1" parent="WIyWlLk6GJQsqaUBKTNV-1" source="Dd3rRLLR6t489pkpHAai-0" target="Dd3rRLLR6t489pkpHAai-1">
          <mxGeometry relative="1" as="geometry" />
        </mxCell>
        <mxCell id="Dd3rRLLR6t489pkpHAai-0" value="START" style="ellipse;whiteSpace=wrap;html=1;" vertex="1" parent="WIyWlLk6GJQsqaUBKTNV-1">
          <mxGeometry x="330" y="30" width="120" height="80" as="geometry" />
        </mxCell>
        <mxCell id="Dd3rRLLR6t489pkpHAai-5" style="edgeStyle=orthogonalEdgeStyle;rounded=0;orthogonalLoop=1;jettySize=auto;html=1;entryX=0.5;entryY=0;entryDx=0;entryDy=0;" edge="1" parent="WIyWlLk6GJQsqaUBKTNV-1" source="Dd3rRLLR6t489pkpHAai-1">
          <mxGeometry relative="1" as="geometry">
            <mxPoint x="390" y="250" as="targetPoint" />
          </mxGeometry>
        </mxCell>
        <mxCell id="Dd3rRLLR6t489pkpHAai-8" style="edgeStyle=orthogonalEdgeStyle;rounded=0;orthogonalLoop=1;jettySize=auto;html=1;entryX=0.5;entryY=0;entryDx=0;entryDy=0;" edge="1" parent="WIyWlLk6GJQsqaUBKTNV-1" source="Dd3rRLLR6t489pkpHAai-1">
          <mxGeometry relative="1" as="geometry">
            <mxPoint x="390" y="270" as="targetPoint" />
          </mxGeometry>
        </mxCell>
        <mxCell id="Dd3rRLLR6t489pkpHAai-1" value="pobierz a&lt;br&gt;a-[0,1,2,3,4]&lt;br&gt;i=0&lt;br&gt;k=a dl" style="rounded=0;whiteSpace=wrap;html=1;" vertex="1" parent="WIyWlLk6GJQsqaUBKTNV-1">
          <mxGeometry x="292.5" y="160" width="195" height="70" as="geometry" />
        </mxCell>
        <mxCell id="Dd3rRLLR6t489pkpHAai-6" style="edgeStyle=orthogonalEdgeStyle;rounded=0;orthogonalLoop=1;jettySize=auto;html=1;exitX=0.5;exitY=1;exitDx=0;exitDy=0;" edge="1" parent="WIyWlLk6GJQsqaUBKTNV-1" source="Dd3rRLLR6t489pkpHAai-1" target="Dd3rRLLR6t489pkpHAai-1">
          <mxGeometry relative="1" as="geometry" />
        </mxCell>
        <mxCell id="Dd3rRLLR6t489pkpHAai-17" style="edgeStyle=orthogonalEdgeStyle;rounded=0;orthogonalLoop=1;jettySize=auto;html=1;entryX=1;entryY=0.5;entryDx=0;entryDy=0;exitX=0;exitY=0.5;exitDx=0;exitDy=0;" edge="1" parent="WIyWlLk6GJQsqaUBKTNV-1" source="Dd3rRLLR6t489pkpHAai-20" target="Dd3rRLLR6t489pkpHAai-14">
          <mxGeometry relative="1" as="geometry">
            <mxPoint x="330" y="300" as="sourcePoint" />
          </mxGeometry>
        </mxCell>
        <mxCell id="Dd3rRLLR6t489pkpHAai-18" style="edgeStyle=orthogonalEdgeStyle;rounded=0;orthogonalLoop=1;jettySize=auto;html=1;entryX=0;entryY=0.5;entryDx=0;entryDy=0;exitX=1;exitY=0.5;exitDx=0;exitDy=0;" edge="1" parent="WIyWlLk6GJQsqaUBKTNV-1" source="Dd3rRLLR6t489pkpHAai-20" target="Dd3rRLLR6t489pkpHAai-11">
          <mxGeometry relative="1" as="geometry">
            <mxPoint x="450" y="300" as="sourcePoint" />
          </mxGeometry>
        </mxCell>
        <mxCell id="Dd3rRLLR6t489pkpHAai-33" style="edgeStyle=orthogonalEdgeStyle;rounded=0;orthogonalLoop=1;jettySize=auto;html=1;entryX=0.5;entryY=0;entryDx=0;entryDy=0;" edge="1" parent="WIyWlLk6GJQsqaUBKTNV-1" source="Dd3rRLLR6t489pkpHAai-11" target="Dd3rRLLR6t489pkpHAai-32">
          <mxGeometry relative="1" as="geometry" />
        </mxCell>
        <mxCell id="Dd3rRLLR6t489pkpHAai-11" value="i+1&lt;br&gt;k-1" style="rounded=0;whiteSpace=wrap;html=1;" vertex="1" parent="WIyWlLk6GJQsqaUBKTNV-1">
          <mxGeometry x="540" y="390" width="120" height="60" as="geometry" />
        </mxCell>
        <mxCell id="Dd3rRLLR6t489pkpHAai-31" style="edgeStyle=orthogonalEdgeStyle;rounded=0;orthogonalLoop=1;jettySize=auto;html=1;entryX=0;entryY=0.5;entryDx=0;entryDy=0;" edge="1" parent="WIyWlLk6GJQsqaUBKTNV-1" source="Dd3rRLLR6t489pkpHAai-14" target="Dd3rRLLR6t489pkpHAai-29">
          <mxGeometry relative="1" as="geometry">
            <Array as="points">
              <mxPoint x="160" y="770" />
            </Array>
          </mxGeometry>
        </mxCell>
        <mxCell id="Dd3rRLLR6t489pkpHAai-14" value="NIe jest palindromem" style="rounded=0;whiteSpace=wrap;html=1;" vertex="1" parent="WIyWlLk6GJQsqaUBKTNV-1">
          <mxGeometry x="120" y="390" width="120" height="60" as="geometry" />
        </mxCell>
        <mxCell id="Dd3rRLLR6t489pkpHAai-16" value="nie" style="text;html=1;align=center;verticalAlign=middle;resizable=0;points=[];autosize=1;strokeColor=none;fillColor=none;" vertex="1" parent="WIyWlLk6GJQsqaUBKTNV-1">
          <mxGeometry x="240" y="330" width="40" height="30" as="geometry" />
        </mxCell>
        <mxCell id="Dd3rRLLR6t489pkpHAai-19" value="tak" style="text;html=1;align=center;verticalAlign=middle;resizable=0;points=[];autosize=1;strokeColor=none;fillColor=none;" vertex="1" parent="WIyWlLk6GJQsqaUBKTNV-1">
          <mxGeometry x="500" y="335" width="40" height="30" as="geometry" />
        </mxCell>
        <mxCell id="Dd3rRLLR6t489pkpHAai-20" value="a[i]=b[k]" style="rhombus;whiteSpace=wrap;html=1;" vertex="1" parent="WIyWlLk6GJQsqaUBKTNV-1">
          <mxGeometry x="350" y="260" width="80" height="80" as="geometry" />
        </mxCell>
        <mxCell id="Dd3rRLLR6t489pkpHAai-25" style="edgeStyle=orthogonalEdgeStyle;rounded=0;orthogonalLoop=1;jettySize=auto;html=1;entryX=0.675;entryY=0.113;entryDx=0;entryDy=0;entryPerimeter=0;exitX=1;exitY=0.5;exitDx=0;exitDy=0;" edge="1" parent="WIyWlLk6GJQsqaUBKTNV-1" source="Dd3rRLLR6t489pkpHAai-32" target="Dd3rRLLR6t489pkpHAai-20">
          <mxGeometry relative="1" as="geometry">
            <mxPoint x="440" y="260" as="targetPoint" />
            <mxPoint x="660" y="570" as="sourcePoint" />
            <Array as="points">
              <mxPoint x="640" y="570" />
              <mxPoint x="730" y="570" />
              <mxPoint x="730" y="269" />
            </Array>
          </mxGeometry>
        </mxCell>
        <mxCell id="Dd3rRLLR6t489pkpHAai-26" value="nie" style="text;html=1;align=center;verticalAlign=middle;resizable=0;points=[];autosize=1;strokeColor=none;fillColor=none;" vertex="1" parent="WIyWlLk6GJQsqaUBKTNV-1">
          <mxGeometry x="670" y="515" width="40" height="30" as="geometry" />
        </mxCell>
        <mxCell id="Dd3rRLLR6t489pkpHAai-30" style="edgeStyle=orthogonalEdgeStyle;rounded=0;orthogonalLoop=1;jettySize=auto;html=1;entryX=0.5;entryY=0;entryDx=0;entryDy=0;" edge="1" parent="WIyWlLk6GJQsqaUBKTNV-1" source="Dd3rRLLR6t489pkpHAai-27" target="Dd3rRLLR6t489pkpHAai-29">
          <mxGeometry relative="1" as="geometry" />
        </mxCell>
        <mxCell id="Dd3rRLLR6t489pkpHAai-27" value="slowo jest palindromem" style="rounded=0;whiteSpace=wrap;html=1;" vertex="1" parent="WIyWlLk6GJQsqaUBKTNV-1">
          <mxGeometry x="330" y="545" width="120" height="60" as="geometry" />
        </mxCell>
        <mxCell id="Dd3rRLLR6t489pkpHAai-29" value="STOP" style="ellipse;whiteSpace=wrap;html=1;" vertex="1" parent="WIyWlLk6GJQsqaUBKTNV-1">
          <mxGeometry x="330" y="730" width="120" height="80" as="geometry" />
        </mxCell>
        <mxCell id="Dd3rRLLR6t489pkpHAai-34" style="edgeStyle=orthogonalEdgeStyle;rounded=0;orthogonalLoop=1;jettySize=auto;html=1;" edge="1" parent="WIyWlLk6GJQsqaUBKTNV-1" source="Dd3rRLLR6t489pkpHAai-32" target="Dd3rRLLR6t489pkpHAai-27">
          <mxGeometry relative="1" as="geometry" />
        </mxCell>
        <mxCell id="Dd3rRLLR6t489pkpHAai-32" value="i=k" style="rhombus;whiteSpace=wrap;html=1;" vertex="1" parent="WIyWlLk6GJQsqaUBKTNV-1">
          <mxGeometry x="560" y="525" width="80" height="80" as="geometry" />
        </mxCell>
        <mxCell id="Dd3rRLLR6t489pkpHAai-35" value="tak" style="text;html=1;align=center;verticalAlign=middle;resizable=0;points=[];autosize=1;strokeColor=none;fillColor=none;" vertex="1" parent="WIyWlLk6GJQsqaUBKTNV-1">
          <mxGeometry x="510" y="525" width="40" height="30" as="geometry" />
        </mxCell>
      </root>
    </mxGraphModel>
  </diagram>
</mxfile>
